<?xml version="1.0" encoding="UTF-8"?> <svg xmlns="http://www.w3.org/2000/svg" width="406" height="512" viewBox="0 0 406 512" fill="none"> <path d="M17.423 114.052H8.54C4.28069 114.052 1 110.946 1 107.318V90.808C1 87.1802 4.27977 84.074 8.54 84.074H17.423V114.052Z" fill="white" stroke="black" stroke-width="2"></path> <path d="M17.423 164.531H8.54C4.2807 164.531 1 161.425 1 157.797V141.287C1 137.659 4.27978 134.553 8.54 134.553H17.423V164.531Z" fill="white" stroke="black" stroke-width="2"></path> <path d="M17.423 433.393H8.54C4.2807 433.393 1 430.287 1 426.659V410.148C1 406.52 4.27978 403.414 8.54 403.414H17.423V433.393Z" fill="white" stroke="black" stroke-width="2"></path> <path d="M16.3359 31.462V31.4619C16.335 14.6341 29.9704 1 46.7869 1H277.939C294.755 1 308.39 14.6341 308.39 31.462V480.538C308.39 497.365 294.754 511 277.939 511H46.7869C29.9705 511 16.3359 497.366 16.3359 480.538V31.462Z" fill="white" stroke="black" stroke-width="2"></path> <path d="M16.334 56.959H308.394V463.729H16.334V56.959Z" fill="white" stroke="black" stroke-width="2"></path> <path d="M16.334 56.962H308.394V92.849H16.334V56.962Z" fill="white" stroke="black" stroke-width="2"></path> <path d="M175.92 35.576H150.198C146.483 35.576 143.472 32.5647 143.472 28.85C143.472 25.1353 146.483 22.124 150.198 22.124H175.92C179.635 22.124 182.646 25.1353 182.646 28.85C182.646 32.5647 179.635 35.576 175.92 35.576Z" fill="white" stroke="black" stroke-width="2"></path> <path d="M122.042 35.576H120.999C117.284 35.576 114.273 32.5647 114.273 28.85C114.273 25.1353 117.284 22.124 120.999 22.124H122.042C125.757 22.124 128.768 25.1353 128.768 28.85C128.768 32.5648 125.758 35.576 122.042 35.576Z" fill="white" stroke="black" stroke-width="2"></path> <path d="M175.92 493.7H150.198C146.483 493.7 143.472 490.689 143.472 486.974C143.472 483.259 146.483 480.248 150.198 480.248H175.92C179.635 480.248 182.646 483.259 182.646 486.974C182.646 490.688 179.635 493.7 175.92 493.7Z" fill="white" stroke="black" stroke-width="2"></path> <path d="M404.164 277.81C404.164 362.326 335.65 430.84 251.134 430.84C166.618 430.84 98.104 362.326 98.104 277.81C98.104 193.294 166.618 124.78 251.134 124.78C335.65 124.78 404.164 193.294 404.164 277.81Z" fill="#FFB800" stroke="black" stroke-width="2"></path> <path d="M208.939 203.007V228.391C208.939 232.392 205.699 235.632 201.698 235.632H176.314C172.313 235.632 169.073 232.392 169.073 228.391V203.007C169.073 199.006 172.313 195.766 176.314 195.766H201.698C205.699 195.766 208.939 199.006 208.939 203.007Z" fill="white" stroke="black" stroke-width="2"></path> <path d="M271.07 203.007V228.391C271.07 232.392 267.83 235.632 263.829 235.632H238.445C234.444 235.632 231.204 232.392 231.204 228.391V203.007C231.204 199.006 234.444 195.766 238.445 195.766H263.829C267.83 195.766 271.07 199.006 271.07 203.007Z" fill="white" stroke="black" stroke-width="2"></path> <path d="M333.2 203.007V228.391C333.2 232.391 329.95 235.632 325.959 235.632H300.564C296.563 235.632 293.323 232.392 293.323 228.391V203.007C293.323 199.006 296.563 195.766 300.564 195.766H325.958C329.951 195.766 333.2 199.007 333.2 203.007Z" fill="white" stroke="black" stroke-width="2"></path> <path d="M208.939 265.117V290.501C208.939 294.502 205.699 297.742 201.698 297.742H176.314C172.313 297.742 169.073 294.502 169.073 290.501V265.117C169.073 261.116 172.313 257.876 176.314 257.876H201.698C205.699 257.876 208.939 261.116 208.939 265.117Z" fill="white" stroke="black" stroke-width="2"></path> <path d="M271.07 265.117V290.501C271.07 294.502 267.83 297.742 263.829 297.742H238.445C234.444 297.742 231.204 294.502 231.204 290.501V265.117C231.204 261.116 234.444 257.876 238.445 257.876H263.829C267.83 257.876 271.07 261.116 271.07 265.117Z" fill="white" stroke="black" stroke-width="2"></path> <path d="M333.2 265.117V290.501C333.2 294.501 329.95 297.742 325.959 297.742H300.564C296.563 297.742 293.323 294.502 293.323 290.501V265.117C293.323 261.116 296.563 257.876 300.564 257.876H325.958C329.951 257.876 333.2 261.117 333.2 265.117Z" fill="white" stroke="black" stroke-width="2"></path> <path d="M201.698 319.986H201.698C205.699 319.985 208.939 323.225 208.939 327.227V352.611C208.939 356.612 205.699 359.852 201.698 359.852H176.314C172.313 359.852 169.073 356.612 169.073 352.611V327.227C169.073 323.226 172.313 319.986 176.314 319.986H201.698Z" fill="white" stroke="black" stroke-width="2"></path> <path d="M263.829 319.986H263.829C267.83 319.985 271.07 323.225 271.07 327.227V352.611C271.07 356.612 267.83 359.852 263.829 359.852H238.445C234.444 359.852 231.204 356.612 231.204 352.611V327.227C231.204 323.226 234.444 319.986 238.445 319.986H263.829Z" fill="white" stroke="black" stroke-width="2"></path> <path d="M325.958 319.986H325.958C329.95 319.985 333.2 323.226 333.2 327.227V352.611C333.2 356.611 329.95 359.852 325.959 359.852H300.564C296.563 359.852 293.323 356.612 293.323 352.611V327.227C293.323 323.226 296.563 319.986 300.564 319.986H325.958Z" fill="white" stroke="black" stroke-width="2"></path> </svg> 