<?xml version="1.0"?>
<svg xmlns="http://www.w3.org/2000/svg" viewBox="57.237 -13.851 649.836 464.75" width="649.836" height="464.75">
  <path d="M 279.697 446.547 L 695.777 206.202 C 710.838 197.498 710.838 175.736 695.777 167.031 L 509 59.191 C 499.013 53.468 486.771 53.468 476.784 59.191 L 75.201 291.234 C 53.697 303.646 53.697 334.676 75.201 347.088 L 247.481 446.547 C 257.468 452.35 269.71 452.35 279.697 446.547 Z" fill="#E2E4E8"></path>
  <path d="M 262.293 431.728 C 268.473 431.728 274.653 430.12 279.987 426.987 L 684.256 193.57 C 695.347 187.135 701.951 175.706 701.951 162.921 C 701.951 150.137 695.347 138.708 684.256 132.273 L 516.114 35.164 C 510.695 32.032 504.6 30.423 498.335 30.423 C 492.07 30.423 485.974 32.032 480.555 35.164 L 76.371 268.497 C 65.28 274.931 58.677 286.361 58.677 299.145 C 58.677 311.929 65.28 323.359 76.371 329.793 L 244.598 426.987 C 250.016 430.035 256.112 431.728 262.293 431.728 Z" fill="white"></path>
  <path d="M 75.694 267.227 L 479.878 33.894 C 485.466 30.677 491.9 28.899 498.419 28.899 C 504.938 28.899 511.288 30.592 516.961 33.894 L 685.018 131.003 C 696.532 137.692 703.474 149.629 703.474 162.921 C 703.474 176.214 696.617 188.151 685.018 194.84 L 280.749 428.257 C 275.162 431.474 268.812 433.168 262.293 433.168 C 255.858 433.168 249.424 431.474 243.836 428.257 L 75.694 331.063 C 64.18 324.375 57.237 312.437 57.237 299.145 C 57.237 285.853 64.18 273.915 75.694 267.227 Z M 515.437 36.434 C 510.188 33.386 504.261 31.862 498.419 31.862 C 492.578 31.862 486.651 33.386 481.402 36.434 L 96.437 258.676 L 86.785 264.264 L 77.133 269.852 C 76.625 270.106 76.202 270.444 75.694 270.783 C 75.271 271.037 74.847 271.291 74.509 271.629 C 74.424 271.714 74.339 271.714 74.339 271.799 C 64.688 279.334 65.45 294.658 76.456 301.008 L 245.36 398.371 C 250.609 401.419 256.451 402.943 262.293 402.943 C 268.134 402.943 273.976 401.419 279.225 398.371 L 683.071 165.207 C 695.347 158.096 695.347 140.401 683.071 133.289 L 676.975 129.733 L 515.437 36.434 Z M 77.133 328.523 L 245.36 425.632 C 250.609 428.68 256.451 430.204 262.293 430.204 C 268.134 430.204 273.976 428.68 279.225 425.632 L 683.579 192.3 C 703.136 181.039 705.76 155.132 691.537 139.893 C 693.061 142.687 693.908 145.904 693.908 149.291 C 693.908 156.487 690.182 162.921 683.917 166.562 L 280.072 399.725 C 274.738 402.858 268.558 404.467 262.377 404.467 C 256.197 404.467 250.016 402.858 244.683 399.725 L 75.779 302.193 C 69.768 298.722 66.212 292.541 66.212 285.599 C 66.212 282.89 66.804 280.265 67.82 277.895 C 55.206 293.303 58.338 317.686 77.133 328.523 Z" fill="#142743"></path>
  <path d="M 301.661 376.104 C 302.931 376.104 304.286 375.766 305.471 375.088 L 652.676 174.605 C 653.608 174.097 654.2 173.081 654.2 171.98 C 654.2 170.88 653.608 169.948 652.676 169.356 L 462.776 59.716 C 460.405 58.362 457.527 58.362 455.241 59.716 L 107.951 260.2 C 107.02 260.708 106.427 261.724 106.427 262.824 C 106.427 263.925 107.02 264.856 107.951 265.449 L 297.936 375.088 C 299.037 375.766 300.391 376.104 301.661 376.104 Z M 304.709 373.818 C 302.846 374.919 300.476 374.919 298.613 373.818 L 108.713 264.179 C 108.205 263.925 107.951 263.417 107.951 262.824 C 107.951 262.232 108.205 261.808 108.713 261.47 L 456.003 60.986 C 457.865 59.886 460.236 59.886 462.099 60.986 L 651.999 170.626 C 652.507 170.88 652.761 171.388 652.761 171.98 C 652.761 172.573 652.507 172.996 651.999 173.335 L 304.709 373.818 Z" fill="#142743"></path>
  <path d="M 186.857 345.964 C 190.244 345.964 193.546 345.287 196.001 343.848 L 197.44 343.001 C 199.896 341.562 201.335 339.53 201.335 337.328 C 201.335 334.704 199.388 332.079 196.001 330.132 L 184.402 323.444 C 178.222 319.888 168.824 319.464 163.49 322.597 L 162.051 323.444 C 159.596 324.883 158.156 326.915 158.156 329.116 C 158.156 331.741 160.104 334.365 163.49 336.312 L 175.089 343.001 C 178.391 345.033 182.709 345.964 186.857 345.964 Z M 172.634 321.92 C 176.444 321.92 180.508 322.851 183.725 324.714 L 195.324 331.402 C 198.202 333.095 199.896 335.297 199.896 337.328 C 199.896 339.022 198.795 340.63 196.763 341.731 L 195.324 342.578 C 190.329 345.456 181.608 345.033 175.851 341.731 L 164.252 335.043 C 161.374 333.349 159.68 331.148 159.68 329.116 C 159.68 327.423 160.781 325.814 162.813 324.714 L 164.252 323.867 C 166.453 322.597 169.417 321.92 172.634 321.92 Z" fill="#142743"></path>
  <path d="M 584.861 96.545 C 583.506 97.307 583.506 98.577 584.861 99.339 C 586.215 100.101 588.417 100.101 589.771 99.339 C 591.126 98.577 591.126 97.307 589.771 96.545 C 588.417 95.698 586.215 95.698 584.861 96.545 Z" fill="#142743"></path>
  <path d="M 591.211 118.558 C 592.311 118.558 593.327 118.304 594.174 117.88 L 594.597 117.626 C 595.528 117.118 595.952 116.356 595.952 115.51 C 595.952 114.578 595.274 113.647 594.174 112.97 L 560.478 93.497 C 558.53 92.397 555.567 92.227 553.874 93.243 L 553.451 93.497 C 552.519 94.005 552.096 94.767 552.096 95.614 C 552.096 96.545 552.773 97.476 553.874 98.154 L 587.57 117.626 C 588.586 118.304 589.941 118.558 591.211 118.558 Z M 556.837 94.09 C 557.853 94.09 558.954 94.344 559.8 94.852 L 593.496 114.324 C 594.174 114.748 594.597 115.171 594.597 115.594 C 594.597 116.018 594.174 116.272 593.92 116.441 L 593.496 116.695 C 592.227 117.457 589.856 117.288 588.332 116.441 L 554.636 96.968 C 553.959 96.545 553.535 96.122 553.535 95.699 C 553.535 95.275 553.959 95.021 554.213 94.852 L 554.636 94.598 C 555.144 94.259 555.991 94.09 556.837 94.09 Z" fill="#142743"></path>
  <path d="M 165.099 370.178 C 165.522 370.178 165.861 370.093 166.284 369.839 C 167.215 369.331 167.723 368.146 167.723 366.707 C 167.723 364.167 166.199 361.288 164.252 360.188 L 148.759 351.213 C 147.743 350.621 146.811 350.621 146.049 351.044 C 145.118 351.552 144.61 352.737 144.61 354.176 C 144.61 356.716 146.134 359.595 148.081 360.696 L 163.575 369.67 C 163.998 370.009 164.591 370.178 165.099 370.178 Z M 147.15 352.314 C 147.489 352.314 147.743 352.483 147.997 352.568 L 163.49 361.542 C 164.929 362.389 166.199 364.759 166.199 366.791 C 166.199 367.723 165.945 368.4 165.522 368.654 C 165.099 368.908 164.591 368.654 164.252 368.485 L 148.759 359.51 C 147.319 358.664 146.049 356.293 146.049 354.261 C 146.049 353.33 146.303 352.653 146.727 352.399 C 146.811 352.314 146.981 352.314 147.15 352.314 Z" fill="#142743"></path>
  <path d="M 413.303 231.967 C 401.296 231.967 389.208 229.29 380.04 224.016 C 371.035 218.824 366.005 211.847 366.005 204.383 C 366.005 197 370.872 190.104 379.797 184.993 C 397.969 174.447 427.663 174.528 445.998 185.074 C 455.003 190.267 460.033 197.244 460.033 204.708 C 460.033 212.09 455.165 218.986 446.241 224.097 C 437.236 229.371 425.31 231.967 413.303 231.967 Z M 412.735 178.503 C 401.052 178.503 389.37 181.099 380.527 186.21 C 372.089 191.078 367.384 197.568 367.384 204.383 C 367.384 211.279 372.089 217.85 380.689 222.799 C 398.618 233.184 427.663 233.184 445.511 222.88 C 453.948 218.013 458.654 211.522 458.654 204.708 C 458.654 197.812 453.948 191.24 445.349 186.291 C 436.343 181.099 424.58 178.503 412.735 178.503 Z" fill="#142743" style=""></path>
  <path d="M 414.263 213.498 C 409.964 213.498 405.664 212.525 402.337 210.659 C 399.011 208.712 397.226 206.197 397.226 203.357 C 397.226 200.599 399.011 198.084 402.256 196.137 C 408.747 192.405 419.374 192.405 425.946 196.218 C 429.272 198.165 431.057 200.68 431.057 203.52 C 431.057 206.278 429.272 208.793 426.027 210.74 C 422.782 212.525 418.563 213.498 414.263 213.498 Z M 414.101 194.758 C 410.126 194.758 406.069 195.65 403.068 197.354 C 400.228 198.976 398.687 201.086 398.687 203.357 C 398.687 205.629 400.228 207.738 403.149 209.442 C 409.315 213.012 419.293 213.012 425.378 209.523 C 428.218 207.901 429.759 205.791 429.759 203.52 C 429.759 201.248 428.218 199.139 425.297 197.435 C 422.133 195.65 418.076 194.758 414.101 194.758 Z" fill="#142743"></path>
  <path d="M 413.58 206.332 C 411.957 206.332 410.416 205.765 409.037 204.71 L 371.15 173.313 C 369.365 171.853 367.174 171.041 364.822 171.041 L 301.298 171.041 C 287.1 171.041 275.58 159.521 275.58 145.324 L 275.58 11.867 C 275.58 -2.33 287.1 -13.851 301.298 -13.851 L 525.862 -13.851 C 540.06 -13.851 551.58 -2.33 551.58 11.867 L 551.58 145.405 C 551.58 159.602 540.06 171.123 525.862 171.123 L 462.338 171.123 C 460.067 171.123 457.795 171.934 456.01 173.394 L 418.123 204.791 C 416.744 205.846 415.203 206.332 413.58 206.332 Z M 301.298 -11.011 C 288.723 -11.011 278.419 -0.789 278.419 11.867 L 278.419 145.405 C 278.419 157.98 288.642 168.283 301.298 168.283 L 364.822 168.283 C 367.742 168.283 370.663 169.338 372.934 171.204 L 410.822 202.6 C 412.363 203.899 414.635 203.899 416.257 202.6 L 454.226 171.123 C 456.497 169.257 459.418 168.202 462.338 168.202 L 525.862 168.202 C 538.437 168.202 548.74 157.98 548.74 145.324 L 548.74 11.867 C 548.74 -0.708 538.518 -11.011 525.862 -11.011 L 301.298 -11.011 Z" fill="#142743"></path>
  <path d="M 413.824 221.812 C 406.036 221.812 398.248 220.109 392.325 216.701 C 386.403 213.294 383.158 208.751 383.158 203.883 C 383.158 199.015 386.322 194.553 392.163 191.227 C 403.927 184.412 423.073 184.493 434.918 191.308 C 440.84 194.716 444.004 199.259 444.004 204.126 C 444.004 208.994 440.84 213.456 434.999 216.782 C 429.239 220.109 421.532 221.812 413.824 221.812 Z M 413.5 187.495 C 406.036 187.495 398.572 189.118 392.974 192.363 C 387.62 195.446 384.699 199.502 384.699 203.802 C 384.699 208.183 387.701 212.239 393.137 215.403 C 404.576 221.975 423.154 222.056 434.512 215.484 C 439.867 212.402 442.787 208.345 442.787 204.045 C 442.787 199.664 439.786 195.608 434.35 192.444 C 428.509 189.118 420.964 187.495 413.5 187.495 Z" fill="#142743"></path>
  <path d="M 525.985 -12.472 L 301.421 -12.472 C 288.035 -12.472 277.163 -1.6 277.163 11.786 L 277.163 145.324 C 277.163 158.71 288.035 169.581 301.421 169.581 L 364.945 169.581 C 367.541 169.581 370.137 170.473 372.165 172.177 L 410.052 203.574 C 412.162 205.278 415.163 205.278 417.273 203.574 L 455.16 172.177 C 457.188 170.473 459.703 169.581 462.38 169.581 L 525.904 169.581 C 539.29 169.581 550.162 158.71 550.162 145.324 L 550.162 11.867 C 550.243 -1.6 539.371 -12.472 525.985 -12.472 Z" fill="white"></path>
  <path d="M 349.962 67.706 L 349.035 76.299 L 357.726 73.834 L 358.629 81.036 L 350.963 81.548 L 356.017 88.335 L 349.669 91.705 L 346.178 84.795 L 343.175 91.656 L 336.535 88.335 L 341.564 81.548 L 333.922 80.938 L 335.021 73.834 L 343.517 76.299 L 342.565 67.706 L 349.962 67.706 Z M 382.677 105.694 L 372.887 105.694 L 372.887 86.797 C 372.887 84.502 372.936 82.403 373.034 80.499 C 372.432 81.231 371.683 81.996 370.788 82.793 L 366.735 86.138 L 361.73 79.986 L 373.986 70.001 L 382.677 70.001 L 382.677 84.501 L 382.677 105.694 Z M 411.974 105.694 L 402.184 105.694 L 402.184 86.797 C 402.184 84.502 402.233 82.403 402.331 80.499 C 401.728 81.231 400.98 81.996 400.085 82.793 L 396.032 86.138 L 391.027 79.986 L 403.283 70.001 L 411.974 70.001 L 411.974 105.694 Z M 441.271 105.694 L 431.481 105.694 L 431.481 86.797 C 431.481 84.502 431.53 82.403 431.627 80.499 C 431.025 81.231 430.277 81.996 429.381 82.793 L 425.329 86.138 L 420.324 79.986 L 432.58 70.001 L 441.271 70.001 L 441.271 105.694 Z M 473.01 85.845 L 472.277 89.947 L 478.21 89.947 L 478.21 96.148 L 471.13 96.148 L 469.323 105.694 L 462.78 105.694 L 464.562 96.148 L 460.461 96.148 L 458.728 105.694 L 452.209 105.694 L 453.967 96.148 L 448.474 96.148 L 448.474 89.947 L 455.163 89.947 L 455.92 85.845 L 450.109 85.845 L 450.109 79.498 L 457.116 79.498 L 458.874 70.001 L 465.417 70.001 L 463.61 79.498 L 467.663 79.498 L 469.421 70.001 L 475.964 70.001 L 474.182 79.498 L 479.772 79.498 L 479.772 85.845 L 473.01 85.845 Z M 461.682 89.947 L 465.71 89.947 L 466.467 85.845 L 462.414 85.845 L 461.682 89.947 Z" fill="#FFD026"></path>
</svg>